<svg xmlns="http://www.w3.org/2000/svg" viewBox="0 0 1771 2499.8"><defs><style>.fa425d6e-ce46-4bef-8057-7a894978b8e2{fill:#fff;}.f9f86f73-90ad-4a47-b3f2-0df1ba1b01a9{fill:#6e0000;}.be93c6b0-0043-49f2-a5cf-9e298b0c9b19{fill:#a61212;}.e95b9688-2991-4e1b-87f9-5c0da5951d04{fill:#ebebeb;}</style></defs><g id="bad0d73b-c552-4b45-9bdf-bf893e1141c0" data-name="Livello 2"><g id="a2dee15f-6939-4408-ad2c-b30f7f4c5e3d" data-name="Livello 1"><path class="fa425d6e-ce46-4bef-8057-7a894978b8e2" d="M1387.8,92.5H1240.9l152.8,165.9v78.9H1078.9V244.9h152.8L1078.9,79V0h309Zm-371.4,0H869.3l153,165.9v78.9H707.4V244.9H860.2L707.4,79V0h309ZM648.6,96.3H490.1V241.1H648.6v96.3H377.3V0H648.6Z"/><path class="f9f86f73-90ad-4a47-b3f2-0df1ba1b01a9" d="M161.2,2299.1,0,491.4H1771L1609.6,2298.8l-725.2,201Z"/><path class="be93c6b0-0043-49f2-a5cf-9e298b0c9b19" d="M885.5,2346.2l586-162.5L1609.3,639.2H885.5Z"/><path class="fa425d6e-ce46-4bef-8057-7a894978b8e2" d="M1160.1,1506.3,1133.4,1803l-247.3,66.7v231l454.5-126,3.3-37.5,38.6-431H1160.1Z"/><path class="fa425d6e-ce46-4bef-8057-7a894978b8e2" d="M885.5,1294.1h293.4l20.2-227H885.5V845.5h556l-5.3,59.5-54.5,611H885.5Z"/><path class="e95b9688-2991-4e1b-87f9-5c0da5951d04" d="M886.7,1869.9h-1l-246.9-66.7L623,1626.4H400.6l31.1,348.1,454.2,126.4h1.3v-231Z"/><path class="e95b9688-2991-4e1b-87f9-5c0da5951d04" d="M886.3,845.5v221.7H350.9l-4.6-49.8L336.2,905l-5.3-59.5Zm-.8,448.6v221.7H641.4l-4.3-49.8L627,1353.6l-5.3-59.5H885.5Z"/></g></g></svg>