<svg xmlns="http://www.w3.org/2000/svg" viewBox="0 0 1771 2499.77"><defs><style>.f73f2854-57e4-4cc1-bd12-da5f0b29864d{fill:#6e0000;}.ea3bf166-0c2b-4fb3-b465-d7b334916c8d{fill:#a61212;}.a475852f-555a-4fc4-9f0f-826d707f903a{fill:#ebebeb;}.ac7c7c6a-7e47-4ccd-8160-ab3a71d96b10{fill:#fff;}</style></defs><g id="ad9975dc-53cb-4e77-91f6-2abc3d7045e2" data-name="Livello 2"><g id="e1d717dd-33ed-4f79-a81f-6eb637e9db51" data-name="Livello 1"><path class="f73f2854-57e4-4cc1-bd12-da5f0b29864d" d="M161.17,2299,0,491.26H1771L1609.65,2298.7,884.41,2499.77Z"/><path class="ea3bf166-0c2b-4fb3-b465-d7b334916c8d" d="M885.5,2346.08l586-162.47L1609.41,639.07H885.5Z"/><path class="a475852f-555a-4fc4-9f0f-826d707f903a" d="M885.5,1309.53H592.13l-20.27-227H885.5V860.79H329.55l5.31,59.48,54.49,611H885.5Zm0,575.8-1,.27-246.92-66.68L621.82,1642.1H399.26l31.07,348.12L884.49,2116.3l1-.29Z"/><path class="ac7c7c6a-7e47-4ccd-8160-ab3a71d96b10" d="M164.78,0H277.44V111.32H380.51V0H493.18V337.09H380.51V224.22H277.44V337.09H164.78ZM641.35,111.79H542.17V0h311.1V111.79H754v225.3H641.36V111.79ZM902.64,0h117.49l72.27,118.45L1164.6,0h117.53V337.09H1169.9V170l-77.52,119.85h-1.93L1012.88,170V337.09H902.63V0Zm435.55,0h112.7V225.67h158.46V337.09H1338.19Z"/><path class="ac7c7c6a-7e47-4ccd-8160-ab3a71d96b10" d="M884.74,1309.53v221.71h273L1132,1818.79l-247.27,66.73v230.66l454.51-126,3.33-37.47,52.11-583.68,5.41-59.54H884.74Zm0-448.74V1082.5h535.53l4.44-49.84,10.11-112.39,5.3-59.48Z"/></g></g></svg>