<svg xmlns="http://www.w3.org/2000/svg" xmlns:xlink="http://www.w3.org/1999/xlink" viewBox="0 0 2452.24 1992"><defs><style>.f82f96b8-7ffd-4720-975e-ac5f2c7180d2{fill:#fff;}.e0ab3d45-18d5-4e1d-92b3-cc2b6fc105e9{fill:url(#b9adc4e6-c4d6-4307-b75c-59e349a5ba64);}</style><linearGradient id="b9adc4e6-c4d6-4307-b75c-59e349a5ba64" x1="5.37" y1="1606.14" x2="2287.33" y2="685.16" gradientUnits="userSpaceOnUse"><stop offset="0" stop-color="#a61212"/><stop offset="0.49" stop-color="#8d0a0a"/><stop offset="1" stop-color="#6e0000"/></linearGradient></defs><g id="bfdc3134-6ad0-47b8-b797-2af40be80c60" data-name="Livello 2"><g id="b77337f6-9543-454b-9254-d2adc38a2307" data-name="Livello 1"><path class="f82f96b8-7ffd-4720-975e-ac5f2c7180d2" d="M1986.45,1463.24c-99.07,101.08-237.65,158.24-387.77,158.44s-288.89-56.45-388-157.23c-48.43-49.14-83.93-105.49-106-165.76a430.73,430.73,0,0,1-24.27-185.11,438,438,0,0,1,53.15-174.37c29-52.55,68.79-100,117.92-140.09,96.26-78.52,218.8-120.93,347.15-121.13s250.79,42,347.16,120.13c49,40,88.84,87.24,117.72,139.68a437.87,437.87,0,0,1,53.25,174.28,431.26,431.26,0,0,1-24.37,185.21c-22.06,60.16-57.66,116.62-106,166Z"/><path d="M1278.4,1120c4.52-81.72,44.63-153.82,105-204.86,59.27-50.24,139.08-80.82,226-80.82s166.76,30.68,226,80.82c60.37,51.14,100.48,123.14,105.09,204.86,4.62,84-29.18,162.15-88.44,220-60.37,58.86-146.4,95.86-242.67,95.86s-182.4-37-242.76-95.86c-59.17-57.86-92.86-136-88.25-220Z"/><path class="e0ab3d45-18d5-4e1d-92b3-cc2b6fc105e9" d="M751.06,1285.46c.6,31.88,10.83,94.06,26.07,142.69,32.19,102.78,86.74,197.94,162.74,281.77,78,86.14,173.88,155.33,284.79,204.36,116.62,51.65,242.86,78,373.92,77.72s257.31-27,373.83-79c110.81-49.64,206.67-119,284.58-205.36,75.91-84.24,130.36-179.5,162.55-282.28a715.63,715.63,0,0,0,30.58-157.53,723.45,723.45,0,0,0-5-156.53c-14.44-101.68-49.64-197-103.79-284-49.63-79.82-113.41-149.81-189.32-208.78l.1-.1-765.9-588-1.9-1.61c-50.44-38.5-134.88-38.4-190.13.31-56,39.1-62.27,103.78-12.63,144.59l-.2.1,319.48,259.92-974,1h-1.3c-80.42.1-157.84,52.94-173.18,119.63-15.64,68,39,124.34,122.74,124.74l-.1.3,493.65-1L87.73,1354.55c-1.1.9-2.3,1.7-3.31,2.5-83,63.58-109.9,169.47-57.65,236.45,53.14,68.09,166,68.19,250.08.3l480.72-393.38s-7,53.15-6.51,85Zm1235.39,177.79c-99.07,101.07-237.65,158.23-387.77,158.43s-288.89-56.45-388-157.23c-48.43-49.14-83.93-105.49-106-165.76a430.73,430.73,0,0,1-24.27-185.11,438,438,0,0,1,53.15-174.37c29-52.55,68.79-100,117.92-140.09,96.26-78.52,218.8-120.93,347.15-121.13s250.79,42,347.16,120.13c49,40,88.84,87.24,117.72,139.68a437.87,437.87,0,0,1,53.25,174.28,431.26,431.26,0,0,1-24.37,185.21c-22.06,60.16-57.66,116.62-106,166Z"/></g></g></svg>