<svg xmlns="http://www.w3.org/2000/svg" xmlns:xlink="http://www.w3.org/1999/xlink" viewBox="0 0 2291.67 2229.17"><defs><style>.acb9b91e-0a79-430d-93ba-2a7fe75e1610{fill:url(#a2e3490e-4667-45ee-9728-e3d9c3e41468);}.b0255898-abe6-4627-953a-53db41588f5c{fill:#fff;}</style><radialGradient id="a2e3490e-4667-45ee-9728-e3d9c3e41468" cx="-390.82" cy="329.4" r="0.76" gradientTransform="translate(896363.88 -730348) scale(2291.67 2218.75)" gradientUnits="userSpaceOnUse"><stop offset="0" stop-color="#a61212" stop-opacity="0.98"/><stop offset="1" stop-color="#390000"/></radialGradient></defs><g id="a25fd2b7-cc5c-4262-836d-a22e7c5f0ff0" data-name="Livello 2"><g id="fc09c337-ea9f-4264-801a-394b7ef1c00c" data-name="Livello 1"><g id="b939bd71-ce43-4852-8e59-75c02417d4d3" data-name="a651f6c0-af1e-410b-987b-e14e68275e76"><g id="baec20e5-f344-4c06-b623-7f848e153c7e" data-name="e9ac8807-537f-4bf2-b2ea-d2d1f3e807a3"><path class="acb9b91e-0a79-430d-93ba-2a7fe75e1610" d="M0,0H2291.67V2229.17H0Z"/><path class="b0255898-abe6-4627-953a-53db41588f5c" d="M1721.32,992.71c-15.62-7.29-35.41-10.42-60.41-10.42-131.25,0-218.75,101-218.75,268.75,0,191.67,89.58,268.75,206.25,268.75,25,0,52.08-3.12,71.87-11.45V992.71Zm-466.66,266.67c0-242.71,156.25-432.29,412.5-432.29,21.87,0,33.33,0,54.16,2.08V558.34a10.44,10.44,0,0,1,10.42-10.42h167.71c8.33,0,10.42,3.12,10.42,8.33v952.09c0,28.12,0,63.54,5.2,102.08,0,7.29,0,8.33-6.25,11.46a620.58,620.58,0,0,1-266.66,60.42C1416.16,1682.3,1254.66,1542.71,1254.66,1259.38ZM899.45,1090.63l291.67,565.62c5.2,8.34,2.08,16.67-6.25,16.67H1003.62c-11.46,0-16.67-3.13-21.88-13.54-66.67-137.5-134.37-280.21-204.17-428.13h-2.08c-62.5,139.59-131.25,291.67-197.92,429.17-5.2,8.33-10.41,11.46-18.75,11.46H385.91c-10.42,0-11.46-8.34-6.25-14.58l285.41-549L389,562.5c-6.25-8.33,0-15.62,7.29-15.62h179.2c10.42,0,15.63,2.08,18.75,11.46,65.63,138.54,132.29,275,194.79,414.58h2.09c60.41-137.5,127.08-276,190.62-412.5,5.21-8.33,8.33-13.54,18.75-13.54H1168.2c8.33,0,11.46,6.25,6.25,15.62l-275,528.13Z"/></g></g><path class="b0255898-abe6-4627-953a-53db41588f5c" d="M0,0V2229.17H2291.67V0ZM95.49,95.26H2196.18V2133.91H95.49Z"/></g></g></svg>