<svg xmlns="http://www.w3.org/2000/svg" viewBox="0 0 2500.12 2500.22"><defs><style>.fb6625d4-3653-48e1-9339-51e70ff45305{fill:#fff;}</style></defs><g id="ab37dfef-82a0-47f4-902f-c8118200557c" data-name="Livello 2"><g id="ea9cd575-ee80-4219-8b80-e01b8b707aff" data-name="Livello 1"><path class="fb6625d4-3653-48e1-9339-51e70ff45305" d="M833.47,1250.11c0-230.13,186.51-416.74,416.64-416.74s416.74,186.61,416.74,416.74-186.61,416.74-416.74,416.74-416.64-186.61-416.64-416.74m-225.28,0c0,354.53,287.39,641.92,641.92,641.92S1892,1604.64,1892,1250.11s-287.39-641.92-641.92-641.92S608.2,895.56,608.2,1250.11M1767.44,582.74a150,150,0,1,0,150.07-149.95h-.06a150.08,150.08,0,0,0-150,150M745.07,2267.68c-121.88-5.55-188.13-25.85-232.15-43-58.37-22.72-100-49.79-143.8-93.51s-70.88-85.33-93.51-143.69c-17.16-44-37.46-110.27-43-232.15-6.06-131.78-7.27-171.36-7.27-505.2s1.31-373.31,7.27-505.19c5.55-121.88,26-188,43-232.15,22.73-58.37,49.79-100,93.51-143.8s85.33-70.88,143.8-93.51c44-17.16,110.27-37.46,232.15-43,131.77-6.06,171.35-7.27,505-7.27s373.31,1.29,505.2,7.29c121.88,5.55,188,26,232.15,43,58.36,22.63,100,49.79,143.79,93.51s70.79,85.43,93.51,143.8c17.16,44,37.46,110.27,43,232.15,6.06,131.88,7.27,171.35,7.27,505.19s-1.21,373.31-7.27,505.2c-5.55,121.88-26,188.12-43,232.15-22.72,58.36-49.79,100-93.51,143.69s-85.43,70.79-143.79,93.51c-44,17.16-110.27,37.46-232.15,43-131.78,6.06-171.36,7.27-505.2,7.27s-373.31-1.21-505-7.27M734.72,7.57c-133.09,6.06-224,27.16-303.44,58.07-82.2,31.91-151.88,74.72-221.45,144.19S97.55,349,65.64,431.28c-30.91,79.47-52,170.35-58.07,303.44C1.41,868,0,910.62,0,1250.11s1.41,382.11,7.57,515.4c6.06,133.09,27.16,224,58.07,303.43,31.91,82.2,74.62,152,144.19,221.45S349,2402.58,431.28,2434.59c79.57,30.9,170.35,52,303.44,58.06,133.36,6.06,175.9,7.57,515.39,7.57s382.11-1.41,515.4-7.57c133.09-6.06,224-27.16,303.43-58.06,82.2-32,151.88-74.73,221.45-144.2s112.19-139.25,144.2-221.45c30.9-79.46,52.1-170.35,58.06-303.43,6.06-133.39,7.47-175.91,7.47-515.4s-1.41-382.1-7.47-515.39c-6.06-133.1-27.16-224-58.06-303.44-32-82.2-74.73-151.87-144.2-221.45S2151.14,97.55,2069,65.64c-79.56-30.91-170.45-52.11-303.43-58.07C1632.3,1.48,1589.7,0,1250.26,0S868.13,1.41,734.77,7.57"/></g></g></svg>