<svg xmlns="http://www.w3.org/2000/svg" viewBox="0 0 1738.16 1661.43"><defs><style>.a53334ec-70d9-49a6-a9c0-0dc6b996b577{fill:#fff;}</style></defs><g id="fc2e165f-4c66-4227-afcd-9913e6241847" data-name="Livello 2"><g id="a6474b46-bf76-4511-9b8e-8b2cb8718cec" data-name="Livello 1"><path class="a53334ec-70d9-49a6-a9c0-0dc6b996b577" d="M394.57,1661.39v-1121H22v1121H394.57Zm-186.23-1274c129.91,0,210.79-86.08,210.79-193.66C416.7,83.68,338.25,0,210.81,0S0,83.68,0,193.69C0,301.27,80.85,387.35,205.9,387.35h2.44Zm392.47,1274H973.39V1035.44c0-33.46,2.43-67,12.27-90.9,26.92-67,88.23-136.29,191.19-136.29,134.79,0,188.74,102.79,188.74,253.5v599.64h372.57V1018.64c0-344.31-183.8-504.53-428.94-504.53-201,0-289.24,112.33-338.29,188.84h2.48V540.43H600.83c4.86,105.16,0,1121,0,1121Z"/></g></g></svg>