<svg xmlns="http://www.w3.org/2000/svg" viewBox="0 0 2499.06 2031.08"><defs><style>.e0a5e259-eb05-4750-a9f0-8c1ca76480f3{fill:#fff;}</style></defs><g id="b42b680f-cf07-4fc2-83aa-b69db2eaaea6" data-name="Livello 2"><g id="a634c260-4a6a-4b00-9411-a9b2e6915def" data-name="Livello 1"><path class="e0a5e259-eb05-4750-a9f0-8c1ca76480f3" d="M2499.06,240.49a1026.81,1026.81,0,0,1-294.41,80.67c105.88-63.4,187.1-164,225.4-283.74a1023.49,1023.49,0,0,1-325.56,124.37A512.44,512.44,0,0,0,1730.28,0c-283.08,0-512.67,229.59-512.67,512.89a523.86,523.86,0,0,0,13.21,116.66C804.55,608.09,426.93,403.93,174,93.77a512.45,512.45,0,0,0-69.34,257.77c0,177.86,90.58,334.92,228.05,426.82a511.51,511.51,0,0,1-232.23-64.17v6.6c0,248.41,176.65,455.66,411.3,502.77a520.36,520.36,0,0,1-231.57,8.8c65.26,203.62,254.57,352,479,355.94-175.55,137.58-396.67,219.58-636.82,219.58A1046.27,1046.27,0,0,1,0,1800.72c227,145.61,496.38,230.36,785.84,230.36,943.23,0,1458.87-781.22,1458.87-1458.76,0-22-.55-44.24-1.54-66.26a1042.39,1042.39,0,0,0,255.67-265.24Z"/></g></g></svg>